<svg width="188" height="42" viewBox="0 0 188 42" fill="none" xmlns="http://www.w3.org/2000/svg">
<path d="M6.73597 41.6C2.28797 41.6 0.0639648 40.672 0.0639648 38.816C0.0639648 38.176 0.335965 37.552 0.879965 36.944C1.42396 36.336 1.96796 36.032 2.51196 36.032C2.89596 36.032 3.24797 36.128 3.56797 36.32C3.88797 36.512 4.20797 36.8 4.52797 37.184C5.13597 37.888 5.58396 38.464 5.87196 38.912C6.19196 39.36 6.54397 39.584 6.92797 39.584C7.88797 39.584 8.62397 38.96 9.13597 37.712C9.64797 36.496 9.90396 34.48 9.90396 31.664V5.552C9.90396 4.496 9.69597 3.76 9.27997 3.344C8.86397 2.928 8.01597 2.576 6.73597 2.288C6.06397 2.128 5.72796 1.792 5.72796 1.28C5.72796 1.056 5.82396 0.879998 6.01596 0.751998C6.23996 0.623998 6.46396 0.559998 6.68796 0.559998C7.42396 0.559998 8.19197 0.575997 8.99197 0.607997C9.82397 0.639997 10.624 0.687997 11.392 0.751998C12.192 0.783998 12.928 0.799997 13.6 0.799997C14.24 0.799997 14.944 0.783998 15.712 0.751998C16.512 0.719998 17.328 0.687998 18.16 0.655996C19.024 0.623997 19.808 0.607997 20.512 0.607997C20.8 0.607997 21.008 0.671997 21.136 0.799997C21.296 0.895998 21.376 1.056 21.376 1.28C21.376 1.6 21.28 1.824 21.088 1.952C20.928 2.08 20.688 2.192 20.368 2.288C19.088 2.64 18.256 3.04 17.872 3.488C17.488 3.904 17.296 4.608 17.296 5.6V27.872C17.296 28.736 17.12 29.696 16.768 30.752C16.448 31.808 15.984 32.88 15.376 33.968C14.8 35.088 14.16 36.128 13.456 37.088C12.496 38.336 11.424 39.392 10.24 40.256C9.08797 41.152 7.91997 41.6 6.73597 41.6Z" fill="black"/>
<path d="M28.6007 32.672C27.7367 32.672 26.9367 32.464 26.2007 32.048C25.4647 31.632 24.8727 31.088 24.4247 30.416C24.0087 29.744 23.8007 29.008 23.8007 28.208C23.8007 27.12 24.1367 26.208 24.8087 25.472C25.5127 24.736 26.5367 24.08 27.8807 23.504L32.1527 21.632C32.7927 21.344 33.1767 21.088 33.3047 20.864C33.4647 20.64 33.5447 20.224 33.5447 19.616L33.5927 16.88C33.6247 15.984 33.4647 15.28 33.1127 14.768C32.7607 14.224 32.2327 13.952 31.5287 13.952C31.1127 13.952 30.6967 14.048 30.2807 14.24C29.8647 14.4 29.5447 14.592 29.3207 14.816C29.2247 14.944 29.1447 15.104 29.0807 15.296C29.0487 15.456 29.0327 15.632 29.0327 15.824C29.0327 16.016 29.0487 16.256 29.0807 16.544C29.1127 16.8 29.1287 17.024 29.1287 17.216C29.1287 17.408 28.8727 17.664 28.3607 17.984C27.8487 18.272 27.2567 18.544 26.5847 18.8C25.9127 19.024 25.3367 19.136 24.8567 19.136C24.6327 19.136 24.4247 19.04 24.2327 18.848C24.0727 18.656 23.9927 18.416 23.9927 18.128C23.9927 17.616 24.1687 17.12 24.5207 16.64C24.8727 16.128 25.4487 15.552 26.2487 14.912C27.0807 14.208 27.9927 13.584 28.9847 13.04C29.9767 12.496 30.9527 12.064 31.9127 11.744C32.9047 11.424 33.7367 11.264 34.4087 11.264C36.1367 11.264 37.5127 11.824 38.5367 12.944C39.5607 14.032 40.0407 15.488 39.9767 17.312L39.7367 27.008C39.7047 27.744 39.8327 28.368 40.1207 28.88C40.4087 29.392 40.7607 29.648 41.1767 29.648C41.7847 29.648 42.3127 29.44 42.7607 29.024C42.8567 28.928 42.9527 28.88 43.0487 28.88C43.2087 28.88 43.3367 28.928 43.4327 29.024C43.5607 29.12 43.6247 29.248 43.6247 29.408C43.6247 29.792 43.3367 30.288 42.7607 30.896C42.1527 31.472 41.5127 31.904 40.8407 32.192C40.1687 32.512 39.4647 32.672 38.7287 32.672C36.9367 32.672 35.4487 31.76 34.2647 29.936H34.1687C33.1127 30.896 32.1527 31.584 31.2887 32C30.4567 32.448 29.5607 32.672 28.6007 32.672ZM31.4807 29.552C31.8327 29.552 32.1207 29.504 32.3447 29.408C32.5687 29.28 32.7927 29.088 33.0167 28.832C33.1127 28.704 33.1927 28.544 33.2567 28.352C33.3207 28.128 33.3527 27.872 33.3527 27.584L33.4967 24.128C33.4967 23.808 33.4487 23.6 33.3527 23.504C33.2567 23.408 33.1447 23.36 33.0167 23.36C32.9527 23.36 32.8727 23.376 32.7767 23.408C32.6807 23.44 32.5687 23.488 32.4407 23.552C31.5127 24 30.8247 24.464 30.3767 24.944C29.9287 25.392 29.7047 26.128 29.7047 27.152C29.7047 28.08 29.8967 28.72 30.2807 29.072C30.6647 29.392 31.0647 29.552 31.4807 29.552Z" fill="black"/>
<path d="M52.8156 32.672C51.7596 32.672 50.7356 32.544 49.7436 32.288C48.7516 32.032 47.8556 31.616 47.0556 31.04C46.7676 30.56 46.5596 29.808 46.4316 28.784C46.3036 27.76 46.2556 26.688 46.2876 25.568C46.2876 25.184 46.6076 24.992 47.2476 24.992C47.5036 24.992 47.7276 25.072 47.9196 25.232C48.1116 25.392 48.2236 25.552 48.2556 25.712C48.8636 27.056 49.5676 28.208 50.3676 29.168C51.1676 30.096 52.1276 30.56 53.2476 30.56C54.1116 30.56 54.7676 30.304 55.2156 29.792C55.6636 29.248 55.8876 28.64 55.8876 27.968C55.8876 27.136 55.5516 26.448 54.8796 25.904C54.2396 25.328 53.4556 24.8 52.5276 24.32C51.5996 23.84 50.7196 23.296 49.8876 22.688C49.0556 22.08 48.3676 21.36 47.8236 20.528C47.3116 19.664 47.0556 18.64 47.0556 17.456C47.0556 16.208 47.3916 15.12 48.0636 14.192C48.7676 13.264 49.6956 12.544 50.8476 12.032C52.0316 11.488 53.3436 11.216 54.7836 11.216C55.8396 11.216 56.8156 11.344 57.7116 11.6C58.6076 11.824 59.2156 12.048 59.5356 12.272C59.7916 12.592 59.9996 13.2 60.1596 14.096C60.3196 14.96 60.3996 15.92 60.3996 16.976C60.3996 17.328 60.1116 17.504 59.5356 17.504C59.3116 17.504 59.0716 17.424 58.8156 17.264C58.5916 17.104 58.4476 16.944 58.3836 16.784C57.9676 15.536 57.4236 14.608 56.7516 14C56.1116 13.36 55.3916 13.04 54.5916 13.04C53.8876 13.04 53.2476 13.264 52.6716 13.712C52.0956 14.16 51.8076 14.768 51.8076 15.536C51.8076 16.208 52.1116 16.816 52.7196 17.36C53.3596 17.872 54.1436 18.384 55.0716 18.896C57.1516 19.984 58.6396 21.04 59.5356 22.064C60.4316 23.056 60.8796 24.384 60.8796 26.048C60.8796 28.128 60.1916 29.76 58.8156 30.944C57.4716 32.096 55.4716 32.672 52.8156 32.672Z" fill="black"/>
<path d="M71.5525 32.672C70.4965 32.672 69.4725 32.544 68.4805 32.288C67.4885 32.032 66.5925 31.616 65.7925 31.04C65.5045 30.56 65.2965 29.808 65.1685 28.784C65.0405 27.76 64.9925 26.688 65.0245 25.568C65.0245 25.184 65.3445 24.992 65.9845 24.992C66.2405 24.992 66.4645 25.072 66.6565 25.232C66.8485 25.392 66.9605 25.552 66.9925 25.712C67.6005 27.056 68.3045 28.208 69.1045 29.168C69.9045 30.096 70.8645 30.56 71.9845 30.56C72.8485 30.56 73.5045 30.304 73.9525 29.792C74.4005 29.248 74.6245 28.64 74.6245 27.968C74.6245 27.136 74.2885 26.448 73.6165 25.904C72.9765 25.328 72.1925 24.8 71.2645 24.32C70.3365 23.84 69.4565 23.296 68.6245 22.688C67.7925 22.08 67.1045 21.36 66.5605 20.528C66.0485 19.664 65.7925 18.64 65.7925 17.456C65.7925 16.208 66.1285 15.12 66.8005 14.192C67.5045 13.264 68.4325 12.544 69.5845 12.032C70.7685 11.488 72.0805 11.216 73.5205 11.216C74.5765 11.216 75.5525 11.344 76.4485 11.6C77.3445 11.824 77.9525 12.048 78.2725 12.272C78.5285 12.592 78.7365 13.2 78.8965 14.096C79.0565 14.96 79.1365 15.92 79.1365 16.976C79.1365 17.328 78.8485 17.504 78.2725 17.504C78.0485 17.504 77.8085 17.424 77.5525 17.264C77.3285 17.104 77.1845 16.944 77.1205 16.784C76.7045 15.536 76.1605 14.608 75.4885 14C74.8485 13.36 74.1285 13.04 73.3285 13.04C72.6245 13.04 71.9845 13.264 71.4085 13.712C70.8325 14.16 70.5445 14.768 70.5445 15.536C70.5445 16.208 70.8485 16.816 71.4565 17.36C72.0965 17.872 72.8805 18.384 73.8085 18.896C75.8885 19.984 77.3765 21.04 78.2725 22.064C79.1685 23.056 79.6165 24.384 79.6165 26.048C79.6165 28.128 78.9285 29.76 77.5525 30.944C76.2085 32.096 74.2085 32.672 71.5525 32.672Z" fill="black"/>
<path d="M93.7453 32.672C91.8253 32.672 90.0973 32.24 88.5613 31.376C87.0253 30.512 85.7933 29.328 84.8653 27.824C83.9693 26.288 83.5213 24.56 83.5213 22.64C83.5213 21.104 83.8093 19.648 84.3853 18.272C84.9613 16.896 85.7613 15.68 86.7853 14.624C87.8093 13.568 89.0093 12.736 90.3853 12.128C91.7613 11.52 93.2333 11.216 94.8013 11.216C96.7853 11.216 98.5773 11.68 100.177 12.608C101.777 13.536 103.041 14.768 103.969 16.304C104.929 17.808 105.409 19.456 105.409 21.248C105.409 23.296 104.961 25.2 104.065 26.96C103.201 28.688 101.905 30.08 100.177 31.136C98.4813 32.16 96.3373 32.672 93.7453 32.672ZM94.7053 30.56C95.3773 30.56 95.9533 30.432 96.4333 30.176C96.9453 29.888 97.3613 29.472 97.6813 28.928C98.0653 28.288 98.3213 27.424 98.4493 26.336C98.6093 25.216 98.6893 23.904 98.6893 22.4C98.6893 20.672 98.4973 19.136 98.1133 17.792C97.7293 16.416 97.1853 15.328 96.4813 14.528C95.8093 13.728 95.0093 13.328 94.0813 13.328C93.5693 13.328 93.1053 13.424 92.6893 13.616C92.2733 13.776 91.9053 14.016 91.5853 14.336C91.0413 14.976 90.6573 15.888 90.4333 17.072C90.2413 18.256 90.1453 19.712 90.1453 21.44C90.1453 22.976 90.3373 24.448 90.7213 25.856C91.1373 27.232 91.6813 28.368 92.3533 29.264C93.0573 30.128 93.8413 30.56 94.7053 30.56Z" fill="black"/>
<path d="M109.918 32.144C109.694 32.144 109.47 32.096 109.246 32C109.054 31.872 108.958 31.696 108.958 31.472C108.958 31.216 109.07 31.024 109.294 30.896C109.518 30.736 109.774 30.608 110.062 30.512C110.542 30.352 110.958 30.176 111.31 29.984C111.694 29.76 111.886 29.328 111.886 28.688V17.696C111.886 16.992 111.774 16.4 111.55 15.92C111.358 15.44 110.974 15.136 110.398 15.008C110.27 14.976 110.142 14.896 110.014 14.768C109.918 14.64 109.87 14.432 109.87 14.144C109.87 13.696 110.03 13.424 110.35 13.328C111.438 13.072 112.622 12.736 113.902 12.32C115.214 11.872 116.334 11.408 117.262 10.928C117.39 10.864 117.534 10.784 117.694 10.688C117.854 10.592 117.998 10.544 118.126 10.544C118.318 10.544 118.43 10.608 118.462 10.736C118.526 10.832 118.558 10.96 118.558 11.12C118.558 11.376 118.51 11.792 118.414 12.368C118.35 12.912 118.318 13.408 118.318 13.856C118.318 13.984 118.318 14.128 118.318 14.288C118.35 14.448 118.382 14.544 118.414 14.576C119.502 13.52 120.606 12.704 121.726 12.128C122.846 11.552 124.142 11.264 125.614 11.264C127.278 11.264 128.67 11.888 129.79 13.136C130.942 14.352 131.518 16.016 131.518 18.128V28.688C131.518 29.328 131.694 29.76 132.046 29.984C132.43 30.176 132.862 30.352 133.342 30.512C133.598 30.608 133.822 30.736 134.014 30.896C134.206 31.024 134.302 31.216 134.302 31.472C134.302 31.696 134.206 31.872 134.014 32C133.854 32.096 133.678 32.144 133.486 32.144C132.846 32.144 132.238 32.112 131.662 32.048C131.118 32.016 130.574 31.984 130.03 31.952C129.518 31.92 128.974 31.904 128.398 31.904C127.854 31.904 127.31 31.92 126.766 31.952C126.222 31.984 125.678 32.016 125.134 32.048C124.59 32.112 123.998 32.144 123.358 32.144C123.166 32.144 122.974 32.096 122.782 32C122.622 31.872 122.542 31.696 122.542 31.472C122.542 31.216 122.638 31.024 122.83 30.896C123.022 30.736 123.246 30.608 123.502 30.512C123.982 30.352 124.382 30.176 124.702 29.984C125.022 29.76 125.182 29.328 125.182 28.688V19.136C125.182 17.92 124.894 16.976 124.318 16.304C123.774 15.6 123.038 15.232 122.11 15.2C121.406 15.2 120.782 15.312 120.238 15.536C119.694 15.76 119.134 16.064 118.558 16.448C118.43 16.576 118.334 16.72 118.27 16.88C118.206 17.04 118.174 17.2 118.174 17.36V28.688C118.174 29.328 118.35 29.76 118.702 29.984C119.054 30.176 119.454 30.352 119.902 30.512C120.542 30.704 120.862 31.024 120.862 31.472C120.862 31.664 120.782 31.824 120.622 31.952C120.462 32.08 120.27 32.144 120.046 32.144C119.406 32.144 118.814 32.112 118.27 32.048C117.726 32.016 117.214 31.984 116.734 31.952C116.254 31.92 115.726 31.904 115.15 31.904C114.606 31.904 114.046 31.92 113.47 31.952C112.926 31.984 112.35 32.016 111.742 32.048C111.166 32.112 110.558 32.144 109.918 32.144Z" fill="black"/>
<path d="M152.144 41.6C147.696 41.6 145.472 40.672 145.472 38.816C145.472 38.176 145.744 37.552 146.288 36.944C146.832 36.336 147.376 36.032 147.92 36.032C148.304 36.032 148.656 36.128 148.976 36.32C149.296 36.512 149.616 36.8 149.936 37.184C150.544 37.888 150.992 38.464 151.28 38.912C151.6 39.36 151.952 39.584 152.336 39.584C153.296 39.584 154.032 38.96 154.544 37.712C155.056 36.496 155.312 34.48 155.312 31.664V5.552C155.312 4.496 155.104 3.76 154.688 3.344C154.272 2.928 153.424 2.576 152.144 2.288C151.472 2.128 151.136 1.792 151.136 1.28C151.136 1.056 151.232 0.879998 151.424 0.751998C151.648 0.623998 151.872 0.559998 152.096 0.559998C152.832 0.559998 153.6 0.575997 154.4 0.607997C155.232 0.639997 156.032 0.687997 156.8 0.751998C157.6 0.783998 158.336 0.799997 159.008 0.799997C159.648 0.799997 160.352 0.783998 161.12 0.751998C161.92 0.719998 162.736 0.687998 163.568 0.655996C164.432 0.623997 165.216 0.607997 165.92 0.607997C166.208 0.607997 166.416 0.671997 166.544 0.799997C166.704 0.895998 166.784 1.056 166.784 1.28C166.784 1.6 166.688 1.824 166.496 1.952C166.336 2.08 166.096 2.192 165.776 2.288C164.496 2.64 163.664 3.04 163.28 3.488C162.896 3.904 162.704 4.608 162.704 5.6V27.872C162.704 28.736 162.528 29.696 162.176 30.752C161.856 31.808 161.392 32.88 160.784 33.968C160.208 35.088 159.568 36.128 158.864 37.088C157.904 38.336 156.832 39.392 155.648 40.256C154.496 41.152 153.328 41.6 152.144 41.6Z" fill="black"/>
<path d="M170.255 32.144C169.999 32.144 169.775 32.096 169.583 32C169.391 31.872 169.295 31.696 169.295 31.472C169.295 31.216 169.391 31.024 169.583 30.896C169.775 30.736 170.047 30.608 170.399 30.512C171.103 30.288 171.567 30.048 171.791 29.792C172.047 29.536 172.175 29.168 172.175 28.688V17.648C172.175 16.976 172.079 16.432 171.887 16.016C171.727 15.568 171.343 15.264 170.735 15.104C170.575 15.04 170.431 14.96 170.303 14.864C170.175 14.736 170.111 14.528 170.111 14.24C170.111 13.792 170.303 13.52 170.687 13.424C171.711 13.168 172.831 12.832 174.047 12.416C175.295 12 176.351 11.584 177.215 11.168C177.375 11.04 177.567 10.928 177.791 10.832C178.047 10.704 178.223 10.64 178.319 10.64C178.607 10.64 178.751 10.816 178.751 11.168C178.751 11.328 178.735 11.664 178.703 12.176C178.703 12.656 178.687 13.152 178.655 13.664C178.655 14.176 178.639 14.608 178.607 14.96C178.607 15.248 178.671 15.392 178.799 15.392C179.279 14.72 179.839 14.064 180.479 13.424C181.151 12.784 181.871 12.256 182.639 11.84C183.407 11.424 184.159 11.216 184.895 11.216C186.015 11.216 186.799 11.424 187.247 11.84C187.727 12.256 187.967 12.8 187.967 13.472C187.967 13.952 187.823 14.48 187.535 15.056C187.279 15.632 186.943 16.128 186.527 16.544C186.111 16.96 185.663 17.168 185.183 17.168C184.895 17.168 184.591 17.104 184.271 16.976C183.951 16.816 183.631 16.656 183.311 16.496C182.991 16.368 182.671 16.24 182.351 16.112C182.063 15.952 181.791 15.872 181.535 15.872C180.703 15.872 179.983 16.176 179.375 16.784C178.767 17.392 178.463 18.608 178.463 20.432V28.256C178.463 28.896 178.655 29.376 179.039 29.696C179.455 29.984 180.111 30.256 181.007 30.512C181.359 30.608 181.615 30.736 181.775 30.896C181.967 31.024 182.063 31.216 182.063 31.472C182.063 31.92 181.791 32.144 181.247 32.144C180.287 32.144 179.295 32.096 178.271 32C177.247 31.936 176.319 31.904 175.487 31.904C174.943 31.904 174.383 31.92 173.807 31.952C173.263 31.984 172.687 32.016 172.079 32.048C171.503 32.112 170.895 32.144 170.255 32.144Z" fill="black"/>
</svg>
